<?xml version="1.0" encoding="utf-8"?>

<svg id="fastClock" xmlns="http://www.w3.org/2000/svg" xmlns:xlink="http://www.w3.org/1999/xlink" xmlns:ev="http://www.w3.org/2001/xml-events"
     version="1.1" baseProfile="full" width="100%" height="100%" viewBox="0 0 200 200">

  <defs>
    <!-- three hour stroke (DIN 41091.1) -->
    <symbol id="threeHourStroke">
      <line x1="100" y1="0" x2="100" y2="30" style="stroke:#333; stroke-width:8.4; stroke-linecap:butt"/>
    </symbol>

    <!-- hour stroke (DIN 41091.1) -->
    <symbol id="hourStroke">
      <line x1="100" y1="0" x2="100" y2="24"  style="stroke:#333; stroke-width:8.4; stroke-linecap:butt"/>
    </symbol>

    <!-- minute stroke (DIN 41091.1) -->
    <symbol id="minuteStroke">
      <line x1="100" y1="0" x2="100" y2="8" style="stroke:#333; stroke-width:3.6; stroke-linecap:butt"/>
    </symbol>

    <!-- quarter strokes -->
    <symbol id="quarterStrokes">
      <use xlink:href="#threeHourStroke" />
      <use xlink:href="#minuteStroke" transform="rotate( 6, 100, 100)"/>
      <use xlink:href="#minuteStroke" transform="rotate(12, 100, 100)"/>
      <use xlink:href="#minuteStroke" transform="rotate(18, 100, 100)"/>
      <use xlink:href="#minuteStroke" transform="rotate(24, 100, 100)"/>
      <use xlink:href="#hourStroke"   transform="rotate(30, 100, 100)"/>
      <use xlink:href="#minuteStroke" transform="rotate(36, 100, 100)"/>
      <use xlink:href="#minuteStroke" transform="rotate(42, 100, 100)"/>
      <use xlink:href="#minuteStroke" transform="rotate(48, 100, 100)"/>
      <use xlink:href="#minuteStroke" transform="rotate(54, 100, 100)"/>
      <use xlink:href="#hourStroke"   transform="rotate(60, 100, 100)"/>
      <use xlink:href="#minuteStroke" transform="rotate(66, 100, 100)"/>
      <use xlink:href="#minuteStroke" transform="rotate(72, 100, 100)"/>
      <use xlink:href="#minuteStroke" transform="rotate(78, 100, 100)"/>
      <use xlink:href="#minuteStroke" transform="rotate(84, 100, 100)"/>
    </symbol>

    <!-- visible dial circle -->
    <clipPath id="dialCircle">
      <circle cx="100" cy="100" r="100"/>
    </clipPath>

  </defs>

  <g>
    <circle cx="100" cy="100" r="100" style="fill:#ffffff; stroke:none"/>
  </g>
  
  <!-- dial -->
  <g clip-path="url(#dialCircle)">
    <use xlink:href="#quarterStrokes"/>
    <use xlink:href="#quarterStrokes" transform="rotate( 90, 100, 100)"/>
    <use xlink:href="#quarterStrokes" transform="rotate(180, 100, 100)"/>
    <use xlink:href="#quarterStrokes" transform="rotate(270, 100, 100)"/>
  </g>

</svg>

