<svg width="32" height="32">
  <g>
    <path stroke="rgb(0, 80, 255)" fill="rgb(0, 80, 255)" d="M 0,0 L 31,0 L 31,31 L 0,31 z " />
    <!-- Textfeld -->
    <path stroke="rgb(0, 0, 0)" fill="rgb(255, 255, 255)" d="M 6,22 L 26,22 L 26,30 L 6,30 z " />
    <!-- W -->
    <path stroke="rgb(0, 0, 0)" fill="rgb(0, 0, 0)" d="M 8,24 L  9,28 z " />
    <path stroke="rgb(0, 0, 0)" fill="rgb(0, 0, 0)" d="M 9,28 L 10,24 z " />
    <path stroke="rgb(0, 0, 0)" fill="rgb(0, 0, 0)" d="M 10,24 L 11,28 z " />
    <path stroke="rgb(0, 0, 0)" fill="rgb(0, 0, 0)" d="M 11,28 L 12,24 z " />
    <!-- S -->
    <path stroke="rgb(0, 0, 0)" fill="rgb(0, 0, 0)" d="M 13,24 L 16,24 z " />
    <path stroke="rgb(0, 0, 0)" fill="rgb(0, 0, 0)" d="M 13,24 L 13,26 z " />
    <path stroke="rgb(0, 0, 0)" fill="rgb(0, 0, 0)" d="M 13,26 L 16,26 z " />
    <path stroke="rgb(0, 0, 0)" fill="rgb(0, 0, 0)" d="M 16,26 L 16,28 z " />
    <path stroke="rgb(0, 0, 0)" fill="rgb(0, 0, 0)" d="M 13,28 L 16,28 z " />
    <!-- p -->
    <path stroke="rgb(0, 0, 0)" fill="rgb(0, 0, 0)" d="M 18,25 L 18,30 z " />
    <path stroke="rgb(0, 0, 0)" fill="rgb(0, 0, 0)" d="M 18,25 L 20,25 z " />
    <path stroke="rgb(0, 0, 0)" fill="rgb(0, 0, 0)" d="M 20,25 L 20,28 z " />
    <path stroke="rgb(0, 0, 0)" fill="rgb(0, 0, 0)" d="M 18,28 L 20,28 z " />
    <!-- T -->
    <path stroke="rgb(0, 0, 0)" fill="rgb(0, 0, 0)" d="M 21,24 L 25,24 z " />
    <path stroke="rgb(0, 0, 0)" fill="rgb(0, 0, 0)" d="M 23,24 L 23,28 z " />
    <!-- Taster -->
    <circle cx="16" cy="15" r="5" stroke="rgb(0, 0, 0)" fill="rgb(160, 160, 160)" />
  </g>
</svg>
