<svg width="32" height="32">
  <g>
    <path stroke="rgb(0, 80, 255)" fill="rgb(0, 80, 255)" d="M 0,0 L 31,0 L 31,31 L 0,31 z " />
    <path stroke="rgb(0, 0, 0)" fill="rgb(255, 255, 255)" d="M 7,22 L 26,22 L 26,30 L 7,30 z " />
    <!-- W -->
    <path stroke="rgb(0, 0, 0)" fill="rgb(0, 0, 0)" d="M 9,24 L  10,28 z " />
    <path stroke="rgb(0, 0, 0)" fill="rgb(0, 0, 0)" d="M 10,28 L 11,24 z " />
    <path stroke="rgb(0, 0, 0)" fill="rgb(0, 0, 0)" d="M 11,24 L 12,28 z " />
    <path stroke="rgb(0, 0, 0)" fill="rgb(0, 0, 0)" d="M 12,28 L 13,24 z " />
    <!-- G -->
    <path stroke="rgb(0, 0, 0)" fill="rgb(0, 0, 0)" d="M 16,24 L 18,24 z " />
    <path stroke="rgb(0, 0, 0)" fill="rgb(0, 0, 0)" d="M 15,25 L 15,27 z " />
    <path stroke="rgb(0, 0, 0)" fill="rgb(0, 0, 0)" d="M 16,28 L 18,28 z " />
    <path stroke="rgb(0, 0, 0)" fill="rgb(0, 0, 0)" d="M 19,27 L 19,26 z " />
    <path stroke="rgb(0, 0, 0)" fill="rgb(0, 0, 0)" d="M 17,26 L 19,26 z " />
    <!-- T -->
    <path stroke="rgb(0, 0, 0)" fill="rgb(0, 0, 0)" d="M 20,24 L 24,24 z " />
    <path stroke="rgb(0, 0, 0)" fill="rgb(0, 0, 0)" d="M 22,24 L 22,28 z " />
    
    <circle cx="16" cy="6" r="2" stroke="rgb(0, 0, 0)" fill="rgb(200, 0, 0)" />
    <circle cx="16" cy="15" r="5" stroke="rgb(0, 0, 0)" fill="rgb(100, 100, 100)" />
  </g>
</svg>
