<svg width="32" height="32">
  <g>
    <path stroke="rgb(0, 80, 255)" fill="rgb(0, 80, 255)" d="M 0,0 L 31,0 L 31,31 L 0,31 z " />
    <!-- Textfeld -->
    <path stroke="rgb(0, 0, 0)" fill="rgb(255, 255, 255)" d="M 4,22 L 28,22 L 28,30 L 4,30 z " />
    <!-- W -->
    <path stroke="rgb(0, 0, 0)" fill="rgb(0, 0, 0)" d="M 5,24 L 6,28 z " />
    <path stroke="rgb(0, 0, 0)" fill="rgb(0, 0, 0)" d="M 6,28 L 7,24 z " />
    <path stroke="rgb(0, 0, 0)" fill="rgb(0, 0, 0)" d="M 7,24 L 8,28 z " />
    <path stroke="rgb(0, 0, 0)" fill="rgb(0, 0, 0)" d="M 8,28 L 9,24 z " />
    <!-- E -->
    <path stroke="rgb(0, 0, 0)" fill="rgb(0, 0, 0)" d="M 11,24 L  11,28 z " />
    <path stroke="rgb(0, 0, 0)" fill="rgb(0, 0, 0)" d="M 11,24 L  14,24 z " />
    <path stroke="rgb(0, 0, 0)" fill="rgb(0, 0, 0)" d="M 11,26 L  14,26 z " />
    <path stroke="rgb(0, 0, 0)" fill="rgb(0, 0, 0)" d="M 11,28 L  14,28 z " />
    <!-- S -->
    <path stroke="rgb(0, 0, 0)" fill="rgb(0, 0, 0)" d="M 15,24 L 18,24 z " />
    <path stroke="rgb(0, 0, 0)" fill="rgb(0, 0, 0)" d="M 15,24 L 15,26 z " />
    <path stroke="rgb(0, 0, 0)" fill="rgb(0, 0, 0)" d="M 15,26 L 18,26 z " />
    <path stroke="rgb(0, 0, 0)" fill="rgb(0, 0, 0)" d="M 18,26 L 18,28 z " />
    <path stroke="rgb(0, 0, 0)" fill="rgb(0, 0, 0)" d="M 15,28 L 18,28 z " />
    <!-- p -->
    <path stroke="rgb(0, 0, 0)" fill="rgb(0, 0, 0)" d="M 20,25 L 20,30 z " />
    <path stroke="rgb(0, 0, 0)" fill="rgb(0, 0, 0)" d="M 20,25 L 22,25 z " />
    <path stroke="rgb(0, 0, 0)" fill="rgb(0, 0, 0)" d="M 22,25 L 22,28 z " />
    <path stroke="rgb(0, 0, 0)" fill="rgb(0, 0, 0)" d="M 20,28 L 22,28 z " />
    <!-- T -->
    <path stroke="rgb(0, 0, 0)" fill="rgb(0, 0, 0)" d="M 23,24 L 27,24 z " />
    <path stroke="rgb(0, 0, 0)" fill="rgb(0, 0, 0)" d="M 25,24 L 25,28 z " />
    <!-- Taster -->
    <circle cx="16" cy="15" r="5" stroke="rgb(0, 0, 0)" fill="rgb(160, 160, 160)" />
  </g>
</svg>
