<svg width="64" height="32">
  <g>
    <!-- Hintergrund blau -->
    <path stroke="rgb(0, 80, 255)" fill="rgb(0, 80, 255)" d="M 0,0 L 63,0 L 63,31 L 0,31 z " />
    <!-- WL Melder -->
    <path stroke="rgb(0, 0, 0)" fill="rgb(160, 160, 160)" d="M 2,2 L 21,2 L 21,10 L 2,10 z " />
    <path stroke="rgb(0, 0, 0)" fill="rgb(160, 160, 160)" d="M 41,2 L 61,2 L 61,10 L 41,10 z " />
    <path stroke="rgb(0, 0, 0)" fill="rgb(160, 160, 160)" d="M 2,20 L 21,20 L 21,28 L 2,28 z " />
    <!-- W -->
    <path stroke="rgb(0, 0, 0)" fill="rgb(0, 0, 0)" d="M 6,4 L 7,8 z " />
    <path stroke="rgb(0, 0, 0)" fill="rgb(0, 0, 0)" d="M 7,8 L 8,4 z " />
    <path stroke="rgb(0, 0, 0)" fill="rgb(0, 0, 0)" d="M 8,4 L 9,8 z " />
    <path stroke="rgb(0, 0, 0)" fill="rgb(0, 0, 0)" d="M 9,8 L 10,4 z " />
    <!-- L -->
    <path stroke="rgb(0, 0, 0)" fill="rgb(0, 0, 0)" d="M 12,4 L 12,8 z " />
    <path stroke="rgb(0, 0, 0)" fill="rgb(0, 0, 0)" d="M 12,8 L 15,8 z " />
    <!-- W -->
    <path stroke="rgb(0, 0, 0)" fill="rgb(0, 0, 0)" d="M 46,4 L 47,8 z " />
    <path stroke="rgb(0, 0, 0)" fill="rgb(0, 0, 0)" d="M 47,8 L 48,4 z " />
    <path stroke="rgb(0, 0, 0)" fill="rgb(0, 0, 0)" d="M 48,4 L 49,8 z " />
    <path stroke="rgb(0, 0, 0)" fill="rgb(0, 0, 0)" d="M 49,8 L 50,4 z " />
    <!-- L -->
    <path stroke="rgb(0, 0, 0)" fill="rgb(0, 0, 0)" d="M 52,4 L 52,8 z " />
    <path stroke="rgb(0, 0, 0)" fill="rgb(0, 0, 0)" d="M 52,8 L 55,8 z " />
    <!-- W -->
    <path stroke="rgb(0, 0, 0)" fill="rgb(0, 0, 0)" d="M 6,22 L 7,26 z " />
    <path stroke="rgb(0, 0, 0)" fill="rgb(0, 0, 0)" d="M 7,26 L 8,22 z " />
    <path stroke="rgb(0, 0, 0)" fill="rgb(0, 0, 0)" d="M 8,22 L 9,26 z " />
    <path stroke="rgb(0, 0, 0)" fill="rgb(0, 0, 0)" d="M 9,26 L 10,22 z " />
    <!-- L -->
    <path stroke="rgb(0, 0, 0)" fill="rgb(0, 0, 0)" d="M 12,22 L 12,26 z " />
    <path stroke="rgb(0, 0, 0)" fill="rgb(0, 0, 0)" d="M 12,26 L 15,26 z " />


    <!-- Textfeld -->
    <path stroke="rgb(0, 0, 0)" fill="rgb(255, 255, 255)" d="M 23,22 L 42,22 L 42,30 L 23,30 z " />
    <!-- W -->
    <path stroke="rgb(0, 0, 0)" fill="rgb(0, 0, 0)" d="M 25,24 L 26,28 z " />
    <path stroke="rgb(0, 0, 0)" fill="rgb(0, 0, 0)" d="M 26,28 L 27,24 z " />
    <path stroke="rgb(0, 0, 0)" fill="rgb(0, 0, 0)" d="M 27,24 L 28,28 z " />
    <path stroke="rgb(0, 0, 0)" fill="rgb(0, 0, 0)" d="M 28,28 L 29,24 z " />
    <!-- U -->
    <path stroke="rgb(0, 0, 0)" fill="rgb(0, 0, 0)" d="M 31,24 L 31,28 z " />
    <path stroke="rgb(0, 0, 0)" fill="rgb(0, 0, 0)" d="M 31,28 L 34,28 z " />
    <path stroke="rgb(0, 0, 0)" fill="rgb(0, 0, 0)" d="M 34,28 L 34,24 z " />
    <!-- T -->
    <path stroke="rgb(0, 0, 0)" fill="rgb(0, 0, 0)" d="M 36,24 L 40,24 z " />
    <path stroke="rgb(0, 0, 0)" fill="rgb(0, 0, 0)" d="M 38,24 L 38,28 z " />
    <!-- Taster -->
    <circle cx="32" cy="15" r="5" stroke="rgb(0, 0, 0)" fill="rgb(160, 160, 160)" />
  </g>
</svg>
